<?xml version="1.0" encoding="UTF-8" standalone="no"?>
<!-- Created with Inkscape (http://www.inkscape.org/) -->

<svg
   width="161.99266mm"
   height="170.30548mm"
   viewBox="0 0 161.99266 170.30548"
   version="1.1"
   id="svg5"
   inkscape:version="1.1.2 (b8e25be833, 2022-02-05)"
   sodipodi:docname="dicpen.svg"
   xmlns:inkscape="http://www.inkscape.org/namespaces/inkscape"
   xmlns:sodipodi="http://sodipodi.sourceforge.net/DTD/sodipodi-0.dtd"
   xmlns="http://www.w3.org/2000/svg"
   xmlns:svg="http://www.w3.org/2000/svg">
  <sodipodi:namedview
     id="namedview7"
     pagecolor="#505050"
     bordercolor="#eeeeee"
     borderopacity="1"
     inkscape:pageshadow="0"
     inkscape:pageopacity="0"
     inkscape:pagecheckerboard="0"
     inkscape:document-units="mm"
     showgrid="false"
     inkscape:zoom="0.74029882"
     inkscape:cx="281.64303"
     inkscape:cy="353.91114"
     inkscape:window-width="1920"
     inkscape:window-height="1017"
     inkscape:window-x="-8"
     inkscape:window-y="-8"
     inkscape:window-maximized="1"
     inkscape:current-layer="layer4" />
  <defs
     id="defs2">
    <rect
       x="209.37491"
       y="318.79019"
       width="340.40308"
       height="389.0321"
       id="rect2343" />
  </defs>
  <g
     inkscape:groupmode="layer"
     id="layer6"
     inkscape:label="Layer 3"
     style="display:inline"
     transform="translate(-34.722279,-65.876602)" />
  <g
     inkscape:groupmode="layer"
     id="layer7"
     inkscape:label="Layer 4"
     style="display:inline"
     transform="translate(-34.722279,-65.876602)">
    <circle
       id="path54072"
       style="fill:#000000;stroke:#000000;stroke-width:0.264583"
       cx="97.21299"
       cy="207.64983"
       r="0" />
    <circle
       id="path54074"
       style="fill:#000000;stroke:#000000;stroke-width:0.264583"
       cx="97.21299"
       cy="207.64983"
       r="0" />
    <circle
       id="path54617"
       style="fill:#000000;stroke:#000000;stroke-width:0.264583"
       cx="112.58122"
       cy="110.43682"
       r="0" />
    <circle
       id="path54619"
       style="fill:#000000;stroke:#000000;stroke-width:0.264583"
       cx="112.58122"
       cy="110.43682"
       r="0" />
    <circle
       id="path54621"
       style="fill:#000000;stroke:#000000;stroke-width:0.264583"
       cx="112.58122"
       cy="110.43682"
       r="0" />
    <circle
       id="path54623"
       style="fill:#000000;stroke:#000000;stroke-width:0.264583"
       cx="112.58122"
       cy="110.43682"
       r="0" />
  </g>
  <g
     inkscape:label="Layer 1"
     inkscape:groupmode="layer"
     id="layer1"
     style="display:inline"
     transform="translate(-34.722279,-65.876602)">
    <text
       xml:space="preserve"
       transform="scale(0.26458333)"
       id="text2341"
       style="font-style:normal;font-weight:normal;font-size:40px;line-height:1.25;font-family:sans-serif;white-space:pre;shape-inside:url(#rect2343);fill:#000000;fill-opacity:1;stroke:none" />
    <circle
       id="path53561"
       style="fill:#000000;stroke:#000000;stroke-width:0.264583"
       cx="163.68953"
       cy="103.28881"
       r="0" />
    <circle
       id="path53563"
       style="fill:#000000;stroke:#000000;stroke-width:0.264583"
       cx="163.68953"
       cy="103.28881"
       r="0" />
    <circle
       id="path53598"
       style="fill:#000000;stroke:#000000;stroke-width:0.264583"
       cx="126.51985"
       cy="114.01083"
       r="0" />
    <circle
       id="path53600"
       style="fill:#000000;stroke:#000000;stroke-width:0.264583"
       cx="126.51985"
       cy="114.01083"
       r="0" />
    <circle
       id="path53602"
       style="fill:#000000;stroke:#000000;stroke-width:0.264583"
       cx="136.52708"
       cy="124.37545"
       r="0" />
    <circle
       id="path53604"
       style="fill:#000000;stroke:#000000;stroke-width:0.264583"
       cx="136.52708"
       cy="124.37545"
       r="0" />
    <circle
       id="path53606"
       style="fill:#000000;stroke:#000000;stroke-width:0.264583"
       cx="107.22021"
       cy="144.38989"
       r="0" />
    <circle
       id="path53608"
       style="fill:#000000;stroke:#000000;stroke-width:0.264583"
       cx="107.22021"
       cy="144.38989"
       r="0" />
    <circle
       id="path53764"
       style="fill:#000000;stroke:#000000;stroke-width:0.264583"
       cx="290.5668"
       cy="193.71118"
       r="0" />
    <circle
       id="path53766"
       style="fill:#000000;stroke:#000000;stroke-width:0.264583"
       cx="290.5668"
       cy="193.71118"
       r="0" />
    <circle
       id="path53768"
       style="fill:#000000;stroke:#000000;stroke-width:0.264583"
       cx="182.63176"
       cy="225.16245"
       r="0" />
    <circle
       id="path53770"
       style="fill:#000000;stroke:#000000;stroke-width:0.264583"
       cx="182.63176"
       cy="225.16245"
       r="0" />
    <circle
       id="path53772"
       style="fill:#000000;stroke:#000000;stroke-width:0.264583"
       cx="126.87726"
       cy="246.9639"
       r="0" />
    <circle
       id="path53774"
       style="fill:#008000;stroke:#000000;stroke-width:0.264583"
       cx="126.87726"
       cy="246.9639"
       r="0" />
    <circle
       id="path53899"
       style="fill:#008000;stroke:#000000;stroke-width:0.264583"
       cx="150.8231"
       cy="246.9639"
       r="0" />
    <circle
       id="path53901"
       style="fill:#008000;stroke:#000000;stroke-width:0.264583"
       cx="150.8231"
       cy="246.9639"
       r="0" />
    <circle
       id="path53903"
       style="fill:#008000;stroke:#000000;stroke-width:0.264583"
       cx="151.89531"
       cy="246.9639"
       r="0" />
    <circle
       id="path53905"
       style="fill:#008000;stroke:#000000;stroke-width:0.264583"
       cx="151.89531"
       cy="246.9639"
       r="0" />
    <circle
       id="path53907"
       style="fill:#008000;stroke:#000000;stroke-width:0.264583"
       cx="107.57761"
       cy="252.32491"
       r="0" />
    <circle
       id="path53909"
       style="fill:#008000;stroke:#000000;stroke-width:0.264583"
       cx="107.57761"
       cy="252.32491"
       r="0" />
    <circle
       id="path53911"
       style="fill:#008000;stroke:#000000;stroke-width:0.264583"
       cx="137.59927"
       cy="234.81226"
       r="0" />
    <circle
       id="path53913"
       style="fill:#008000;stroke:#000000;stroke-width:0.264583"
       cx="137.59927"
       cy="234.81226"
       r="0" />
    <circle
       id="path53915"
       style="fill:#008000;stroke:#000000;stroke-width:0.264583"
       cx="154.7545"
       cy="232.66786"
       r="0" />
    <circle
       id="path53917"
       style="fill:#008000;stroke:#000000;stroke-width:0.264583"
       cx="154.7545"
       cy="232.66786"
       r="0" />
  </g>
  <g
     inkscape:groupmode="layer"
     id="layer4"
     inkscape:label="Layer 2"
     style="display:inline"
     transform="translate(-34.722279,-65.876602)">
    <g
       id="g63216">
      <path
         style="display:inline;fill:none;stroke:#000000;stroke-width:0.264583px;stroke-linecap:butt;stroke-linejoin:miter;stroke-opacity:1"
         d="m 86.133574,166.54873 12.509023,-3.2166 7.862813,0.7148 8.57762,1.787 6.07581,3.93141 3.93141,4.64621 1.78701,5.71841 2.1444,5.00361 v 6.43321 l -2.1444,7.50542 -14.29603,9.29242 -6.07582,3.93141 -10.007216,8.22021 -7.148015,1.42961 -4.64621,-4.28881 z"
         id="path52389" />
      <path
         style="display:inline;opacity:1;fill:#000000;stroke-width:0;stroke-miterlimit:4;stroke-dasharray:none"
         d="m 84.513701,220.27374 c 0.213561,-0.95644 0.483652,-15.08639 0.600198,-31.39995 l 0.211898,-29.66099 4.160192,-0.98262 c 3.92593,-0.92728 4.537235,-0.95007 10.856191,-0.40459 11.33299,0.97831 16.67077,2.21778 22.01891,5.11295 6.14374,3.3259 9.97126,7.2169 11.68553,11.87937 0.68213,1.85532 2.06881,5.12061 3.0815,7.25619 1.48211,3.12563 1.81025,4.38392 1.68249,6.45196 l -0.15871,2.56906 -8.0374,5.27599 c -12.85706,8.4398 -43.653654,25.59502 -46.017117,25.63381 -0.259586,0.003 -0.297245,-0.77476 -0.08367,-1.73118 z"
         id="path52428" />
      <g
         aria-label="D"
         id="text7035"
         style="font-size:50.8px;line-height:1.25;display:inline;stroke-width:0.264583"
         transform="matrix(4.9670277,0,0,4.9373639,-354.32095,-474.66343)">
        <path
           d="m 110.93876,118.62348 q 0,3.9624 -2.286,7.5184 -2.286,3.556 -7.4168,8.0772 -3.098803,2.7432 -6.400803,5.1816 -3.2512,2.4384 -5.4356,3.4544 -0.1524,0.5588 -0.4572,0.8128 -0.3048,0.3048 -0.9144,0.3048 -0.4572,0 -0.6604,-0.2032 -0.2032,-0.1524 -0.2032,-0.6096 0,-0.3048 0.2032,-2.54 0.254,-2.2352 0.254,-5.2324 0,-5.08 -0.1524,-9.1948 -0.1016,-4.7752 -0.1016,-6.7056 0,-2.9972 0.6096,-4.9276 0.4572,-1.2192 1.6256,-1.2192 0.4064,0 0.7112,0.1524 0.3556,0.1524 0.3556,0.4572 -0.0508,0.254 -0.5588,1.778 -0.4572,1.524 -0.4572,2.8956 0,3.81 0.1524,8.3312 0.1016,5.7912 0.1016,8.0264 0,3.81 -0.0508,4.572 1.8288,-0.7112 4.9276,-2.9464 3.1496,-2.2352 5.283203,-4.064 4.4196,-3.9624 6.4516,-7.112 2.032,-3.1496 2.032,-6.5532 0,-4.1148 -5.1816,-5.6388 -5.130803,-1.524 -13.462003,-1.524 -2.54,0 -6.8072,0.6096 -0.812799,0.0508 -2.539999,0.508 -0.762,0.254 -1.0668,0.254 -0.4064,0 -0.762,-0.6604 -0.4064,-0.6604 -0.4064,-1.3208 0,-0.254 0.3556,-0.4572 0.3556,-0.254 1.1176,-0.3556 3.047999,-0.4064 5.181599,-0.6096 2.1844,-0.2032 5.08,-0.2032 9.2456,0 15.036803,2.0828 5.842,2.0828 5.842,7.0612 z"
           style="font-family:'Ink Free';-inkscape-font-specification:'Ink Free'"
           id="path26969" />
      </g>
      <path
         style="fill:#e8af8d;fill-opacity:1;stroke:#000000;stroke-width:0.264583px;stroke-linecap:butt;stroke-linejoin:miter;stroke-opacity:1"
         d="m 99.8935,76.841153 5.36101,0.178702 5.27166,0.1787 6.87997,0.357402 6.79061,0.536099 6.70126,0.714803 8.84567,1.250903 5.45036,0.8935 5.98646,1.250902 4.02076,0.982853 5.09296,1.429602 5.00361,1.787004 3.75271,1.608304 3.93141,2.233753 1.69765,1.250905 1.87635,1.608302 2.32311,2.233755 1.9657,2.680504 1.87636,3.305954 1.4296,4.19946 0.5361,3.39531 0.3574,4.37816 -0.0893,3.30595 -0.62545,4.73556 -1.0722,4.82491 -1.51895,5.00361 -2.14441,5.00361 -2.6805,5.18232 -2.76986,4.37815 -3.39531,4.82491 -2.94855,3.84206 -3.30596,3.66336 -3.75271,4.37816 -4.19945,4.37815 -3.03791,3.03791 -3.75271,3.48466 -4.55686,4.28881 -3.84205,3.2166 -2.41246,2.05506 -0.98285,0.8935 -0.98286,-1.96571 -2.05505,-4.64621 -1.0722,-3.12725 -1.96571,-3.57401 -3.3953,-3.574 -3.03791,-2.23376 -3.48465,-2.05505 -3.03791,-1.42961 -3.57401,-1.16155 -3.30596,-0.7148 -4.2888,-0.62545 -4.11011,-0.5361 -3.84206,-0.3574 -3.216606,-0.1787 -2.680507,-0.1787 -2.144403,0.26805 0.08935,-5.53972 -0.804151,-22.69494 -0.08935,-15.27888 v -5.27166 l 0.446749,-4.46751 1.072202,-5.271661 2.591155,-7.505414 0.96865,-3.724704 v 0 z"
         id="path52740" />
    </g>
  </g>
</svg>
