<svg width="612.256" height="643.674" viewBox="0 0 161.993 170.305" xmlns="http://www.w3.org/2000/svg">
    <defs>
        <path id="a" d="M209.375 318.79h340.403v389.032H209.375z"/>
    </defs>
    <g style="display:inline">
        <path style="display:inline;fill:none;stroke:#000;stroke-width:.264583px;stroke-linecap:butt;stroke-linejoin:miter;stroke-opacity:1" d="m86.134 166.549 12.509-3.217 7.862.715 8.578 1.787 6.076 3.931 3.931 4.647 1.787 5.718 2.145 5.004v6.433l-2.145 7.505-14.296 9.293-6.076 3.931-10.007 8.22-7.148 1.43-4.646-4.289z" transform="translate(-34.722 -65.877)"/>
        <path style="display:inline;opacity:1;fill:#000;stroke-width:0;stroke-miterlimit:4;stroke-dasharray:none" d="M84.514 220.274c.213-.957.483-15.087.6-31.4l.212-29.661 4.16-.983c3.926-.927 4.537-.95 10.856-.404 11.333.978 16.67 2.217 22.02 5.113 6.143 3.325 9.97 7.216 11.685 11.879.682 1.855 2.068 5.12 3.081 7.256 1.482 3.126 1.81 4.384 1.683 6.452l-.16 2.57-8.036 5.275c-12.858 8.44-43.654 25.595-46.018 25.634-.26.003-.297-.775-.083-1.731z" transform="translate(-34.722 -65.877)"/>
        <g style="font-size:50.8px;line-height:1.25;display:inline;stroke-width:.264583">
            <path d="M110.939 118.623q0 3.963-2.286 7.519t-7.417 8.077q-3.099 2.743-6.4 5.182-3.252 2.438-5.436 3.454-.153.559-.458.813-.304.305-.914.305-.457 0-.66-.204-.204-.152-.204-.61 0-.304.204-2.54.254-2.234.254-5.232 0-5.08-.153-9.194-.101-4.776-.101-6.706 0-2.997.61-4.928.456-1.219 1.625-1.219.406 0 .711.153.356.152.356.457-.051.254-.56 1.778-.456 1.524-.456 2.895 0 3.81.152 8.332.102 5.79.102 8.026 0 3.81-.051 4.572 1.829-.711 4.927-2.946 3.15-2.236 5.284-4.064 4.42-3.963 6.451-7.112 2.032-3.15 2.032-6.554 0-4.114-5.181-5.638-5.131-1.524-13.462-1.524-2.54 0-6.808.61-.812.05-2.54.507-.762.254-1.066.254-.407 0-.762-.66-.407-.66-.407-1.32 0-.255.356-.458.355-.254 1.117-.356 3.048-.406 5.182-.61 2.184-.203 5.08-.203 9.246 0 15.037 2.083 5.842 2.083 5.842 7.061z" style="font-family:'Ink Free';-inkscape-font-specification:'Ink Free'" transform="matrix(4.96703 0 0 4.93736 -389.043 -540.54)" aria-label="D"/>
        </g>
        <path style="fill:#e8af8d;fill-opacity:1;stroke:#000;stroke-width:.264583px;stroke-linecap:butt;stroke-linejoin:miter;stroke-opacity:1" d="m99.894 76.841 5.36.179 5.272.179 6.88.357 6.79.536 6.702.715 8.846 1.25 5.45.894 5.987 1.251 4.02.983 5.093 1.43 5.004 1.787 3.753 1.608 3.931 2.234 1.698 1.25 1.876 1.609 2.323 2.234 1.966 2.68 1.876 3.306 1.43 4.2.536 3.395.357 4.378-.09 3.306-.625 4.736-1.072 4.824-1.519 5.004-2.144 5.004-2.68 5.182-2.77 4.378-3.396 4.825-2.948 3.842-3.306 3.663-3.753 4.379-4.2 4.378-3.037 3.038-3.753 3.484-4.557 4.29-3.842 3.216-2.412 2.055-.983.893-.983-1.965-2.055-4.647-1.072-3.127-1.966-3.574-3.395-3.574-3.038-2.234-3.485-2.055-3.038-1.43-3.574-1.16-3.306-.716-4.289-.625-4.11-.536-3.842-.358-3.216-.178-2.68-.179-2.145.268.089-5.54-.804-22.695-.09-15.278v-5.272l.447-4.468 1.072-5.271 2.592-7.506.968-3.724z" transform="translate(-34.722 -65.877)"/>
    </g>
</svg>
